<?xml version="1.0" encoding="UTF-8" standalone="no"?>
<!DOCTYPE svg PUBLIC "-//W3C//DTD SVG 1.1//EN" "http://www.w3.org/Graphics/SVG/1.1/DTD/svg11.dtd">
<!-- Created with Vectornator (http://vectornator.io/) -->
<svg height="2500.0px" stroke-miterlimit="10" style="fill-rule:nonzero;clip-rule:evenodd;stroke-linecap:round;stroke-linejoin:round;" version="1.1" viewBox="0 0 2500 2500" width="2500.0px" xml:space="preserve" xmlns="http://www.w3.org/2000/svg" xmlns:xlink="http://www.w3.org/1999/xlink">
<defs>
<linearGradient gradientTransform="matrix(1 0 0 1 -769.359 -233.984)" gradientUnits="userSpaceOnUse" id="LinearGradient" x1="2499.93" x2="2832.38" y1="856.992" y2="1420.01">
<stop offset="0" stop-color="#c84b4f"/>
<stop offset="1" stop-color="#343f74"/>
</linearGradient>
</defs>
<g id="Livello-1">
<path d="M701.266 233.984L630.641 274.797L814.703 593.609L430.641 1258.83L830.016 1950.58L800.797 2116.02L842.297 2116.02L855.547 2041.52L924.297 2041.52L911.297 2116.02L952.797 2116.02L981.797 1951.67L1069.48 1951.67L964.797 2116.02L1012.3 2116.02L1033.55 2080.77L1101.8 2080.77L1107.8 2116.02L1151.55 2116.02L1120.45 1951.67L1196.55 1951.67L1167.55 2116.02L1208.8 2116.02L1220.8 2048.77L1243.55 2048.77C1255.38 2048.77 1266.09 2047.6 1275.67 2045.27C1285.25 2042.93 1293.46 2039.31 1300.3 2034.39C1307.13 2029.47 1312.38 2023.18 1316.05 2015.52C1319.71 2007.85 1321.55 1998.77 1321.55 1988.27C1321.55 1972.77 1316.01 1960.68 1304.92 1952.02C1304.76 1951.89 1304.58 1951.79 1304.42 1951.67L1355.8 1951.67L1326.8 2116.02L1447.3 2116.02L1453.55 2080.27L1373.05 2080.27L1379.55 2042.27L1449.55 2042.27L1455.55 2008.77L1385.55 2008.77L1391.55 1974.52L1465.05 1974.52L1469.08 1951.67L1502.55 1951.67L1473.55 2116.02L1514.05 2116.02L1526.05 2044.77L1543.05 2044.77L1572.8 2116.02L1619.8 2116.02L1583.8 2039.77C1597.13 2036.43 1607.71 2030.22 1615.55 2021.14C1616.19 2020.39 1616.64 2019.52 1617.23 2018.73L1760.02 2266.02L1830.64 2225.23L1651.67 1915.23L2030.64 1258.83L1631.92 568.234L1636.64 541.266L1556.14 541.266L1562.64 503.266L1632.64 503.266L1638.64 469.766L1568.64 469.766L1574.64 435.516L1648.14 435.516L1654.39 400.016L1541.14 400.016L1511.83 566.016L1478.17 566.016L1494.39 472.766L1421.64 472.766L1415.39 507.016L1449.89 507.016L1444.14 540.266C1440.47 542.099 1436.52 543.391 1432.27 544.141C1428.02 544.891 1423.39 545.349 1418.39 545.516C1410.89 545.516 1404.22 544.391 1398.39 542.141C1392.56 539.891 1387.64 536.724 1383.64 532.641C1379.64 528.557 1376.64 523.724 1374.64 518.141C1372.64 512.557 1371.64 506.516 1371.64 500.016C1371.64 490.849 1373.18 482.141 1376.27 473.891C1379.35 465.641 1383.6 458.391 1389.02 452.141C1394.43 445.891 1400.85 440.932 1408.27 437.266C1415.68 433.599 1423.72 431.766 1432.39 431.766C1441.22 431.766 1448.52 433.391 1454.27 436.641C1460.02 439.891 1464.56 443.932 1467.89 448.766L1498.14 421.516C1491.64 412.849 1482.68 406.307 1471.27 401.891C1459.85 397.474 1447.14 395.266 1433.14 395.266C1418.14 395.266 1404.27 398.099 1391.52 403.766C1378.77 409.432 1367.68 417.224 1358.27 427.141C1348.85 437.057 1341.52 448.682 1336.27 462.016C1331.02 475.349 1328.39 489.599 1328.39 504.766C1328.39 516.599 1330.43 527.266 1334.52 536.766C1338.6 546.266 1344.31 554.349 1351.64 561.016C1353.6 562.796 1355.68 564.455 1357.86 566.016L1254.61 566.016C1264.06 561.583 1272.49 555.967 1279.89 549.141C1289.56 540.224 1297.1 529.432 1302.52 516.766C1307.93 504.099 1310.64 490.016 1310.64 474.516C1310.64 461.182 1308.14 449.807 1303.14 440.391C1298.14 430.974 1291.68 423.266 1283.77 417.266C1275.85 411.266 1266.93 406.891 1257.02 404.141C1247.1 401.391 1237.14 400.016 1227.14 400.016L1161.64 400.016L1132.33 566.016L1106.08 566.016L1110.39 541.266L1029.89 541.266L1036.39 503.266L1106.39 503.266L1112.39 469.766L1042.39 469.766L1048.39 435.516L1121.89 435.516L1128.14 400.016L1014.89 400.016L985.578 566.016L892.984 566.016L701.266 233.984ZM1196.14 435.266L1218.89 435.266C1227.22 435.266 1234.43 436.432 1240.52 438.766C1246.6 441.099 1251.64 444.266 1255.64 448.266C1259.64 452.266 1262.6 456.974 1264.52 462.391C1266.43 467.807 1267.39 473.516 1267.39 479.516C1267.39 487.349 1266.06 494.974 1263.39 502.391C1260.72 509.807 1256.77 516.391 1251.52 522.141C1246.27 527.891 1239.68 532.474 1231.77 535.891C1223.85 539.307 1214.72 541.016 1204.39 541.016L1177.64 541.016L1196.14 435.266ZM1754.86 602.016L1706.42 630.016L2020.89 1174.73L2069.36 1146.73L1754.86 602.016ZM894.484 676.578L1566.8 676.578L1902.98 1258.83L1566.8 1841.08C1467.32 1841.08 993.962 1841.08 894.484 1841.08L558.297 1258.83L894.484 676.578ZM906.422 707.297L591.922 1252.02L640.391 1280.02L954.859 735.297L906.422 707.297ZM916.672 1758.05L916.672 1813.98L1545.64 1813.98L1545.64 1758.05L916.672 1758.05ZM741.047 1934.27C731.214 1934.27 721.964 1935.64 713.297 1938.39C704.63 1941.14 697.047 1945.06 690.547 1950.14C684.047 1955.22 678.922 1961.39 675.172 1968.64C671.422 1975.89 669.547 1984.02 669.547 1993.02C669.547 2000.18 670.672 2006.31 672.922 2011.39C675.172 2016.47 678.172 2020.85 681.922 2024.52C685.672 2028.18 690.089 2031.27 695.172 2033.77C700.255 2036.27 705.714 2038.52 711.547 2040.52C719.88 2043.35 726.547 2046.56 731.547 2050.14C736.547 2053.72 739.047 2058.6 739.047 2064.77C739.047 2068.6 738.255 2071.89 736.672 2074.64C735.089 2077.39 732.964 2079.64 730.297 2081.39C727.63 2083.14 724.589 2084.39 721.172 2085.14C717.755 2085.89 714.214 2086.27 710.547 2086.27C703.547 2086.27 696.63 2084.6 689.797 2081.27C682.964 2077.93 677.797 2073.6 674.297 2068.27L643.547 2093.27C647.047 2097.77 651.297 2101.77 656.297 2105.27C661.297 2108.77 666.714 2111.64 672.547 2113.89C678.38 2116.14 684.464 2117.85 690.797 2119.02C697.13 2120.18 703.464 2120.77 709.797 2120.77C718.297 2120.77 726.88 2119.68 735.547 2117.52C744.214 2115.35 752.047 2111.89 759.047 2107.14C766.047 2102.39 771.755 2096.27 776.172 2088.77C780.589 2081.27 782.797 2072.18 782.797 2061.52C782.797 2054.85 781.714 2048.89 779.547 2043.64C777.38 2038.39 774.214 2033.68 770.047 2029.52C765.88 2025.35 760.797 2021.64 754.797 2018.39C748.797 2015.14 741.964 2012.18 734.297 2009.52C727.297 2007.02 721.839 2004.31 717.922 2001.39C714.005 1998.47 712.047 1994.52 712.047 1989.52C712.047 1985.68 712.922 1982.43 714.672 1979.77C716.422 1977.1 718.589 1974.89 721.172 1973.14C723.755 1971.39 726.63 1970.14 729.797 1969.39C732.964 1968.64 735.964 1968.27 738.797 1968.27C744.964 1968.27 750.547 1969.43 755.547 1971.77C760.547 1974.1 764.714 1977.52 768.047 1982.02L796.297 1957.02C793.464 1953.35 789.964 1950.1 785.797 1947.27C781.63 1944.43 777.089 1942.06 772.172 1940.14C767.255 1938.22 762.13 1936.77 756.797 1935.77C751.464 1934.77 746.214 1934.27 741.047 1934.27ZM871.297 1951.67L940.078 1951.67L930.547 2006.27L861.547 2006.27L871.297 1951.67ZM1234.3 1972.77L1251.3 1972.77C1255.46 1972.77 1259.3 1973.06 1262.8 1973.64C1266.3 1974.22 1269.3 1975.27 1271.8 1976.77C1274.3 1978.27 1276.26 1980.31 1277.67 1982.89C1279.09 1985.47 1279.8 1988.68 1279.8 1992.52C1279.8 2001.18 1276.59 2007.22 1270.17 2010.64C1263.76 2014.06 1255.13 2015.77 1244.3 2015.77L1226.55 2015.77L1234.3 1972.77ZM1539.05 1973.02L1556.8 1973.02C1565.46 1973.02 1572.38 1974.35 1577.55 1977.02C1582.71 1979.68 1585.3 1984.68 1585.3 1992.02C1585.3 2000.02 1582.21 2005.85 1576.05 2009.52C1569.88 2013.18 1561.21 2015.02 1550.05 2015.02L1531.55 2015.02L1539.05 1973.02ZM1088.3 1984.52L1097.55 2047.27L1051.3 2047.27L1088.3 1984.52Z" fill="url(#LinearGradient)" fill-rule="nonzero" opacity="0.979858" stroke="none"/>
</g>
</svg>
